<?xml version="1.0" encoding="UTF-8" standalone="no"?>
<!-- Created with Inkscape (http://www.inkscape.org/) -->
<svg
   xmlns:dc="http://purl.org/dc/elements/1.1/"
   xmlns:cc="http://web.resource.org/cc/"
   xmlns:rdf="http://www.w3.org/1999/02/22-rdf-syntax-ns#"
   xmlns:svg="http://www.w3.org/2000/svg"
   xmlns="http://www.w3.org/2000/svg"
   xmlns:sodipodi="http://sodipodi.sourceforge.net/DTD/sodipodi-0.dtd"
   xmlns:inkscape="http://www.inkscape.org/namespaces/inkscape"
   width="64px"
   height="64px"
   id="svg2163"
   sodipodi:version="0.32"
   inkscape:version="0.45.1"
   sodipodi:docbase="/home/brand/dati_locali/progetti/nmapsi4/nmapsi4_new/icons"
   sodipodi:docname="nmapsi4_mw.svg"
   inkscape:output_extension="org.inkscape.output.svg.inkscape"
   inkscape:export-filename="/home/brand/Desktop/nmapsi4-logo/nmapsi4_icon64_3.png"
   inkscape:export-xdpi="90.256409"
   inkscape:export-ydpi="90.256409">
  <sodipodi:namedview
     id="base"
     pagecolor="#ffffff"
     bordercolor="#666666"
     borderopacity="1.0"
     inkscape:pageopacity="0.0"
     inkscape:pageshadow="2"
     inkscape:zoom="5.5"
     inkscape:cx="74.688252"
     inkscape:cy="16.125516"
     inkscape:current-layer="layer1"
     showgrid="true"
     inkscape:document-units="px"
     inkscape:grid-bbox="true"
     inkscape:window-width="1072"
     inkscape:window-height="782"
     inkscape:window-x="98"
     inkscape:window-y="116" />
  <defs
     id="defs2165" />
  <metadata
     id="metadata2168">
    <rdf:RDF>
      <cc:Work
         rdf:about="">
        <dc:format>image/svg+xml</dc:format>
        <dc:type
           rdf:resource="http://purl.org/dc/dcmitype/StillImage" />
      </cc:Work>
    </rdf:RDF>
  </metadata>
  <g
     inkscape:groupmode="layer"
     id="layer1"
     inkscape:label="Layer 1">
    <rect
       id="rect2195"
       x="0"
       y="1.7339532e-06"
       inkscape:export-xdpi="89.620003"
       width="64.272728"
       height="63.81818"
       inkscape:export-ydpi="89.620003"
       style="fill:#916f6f;fill-opacity:0" />
    <path
       id="path2164"
       sodipodi:cx="30"
       sodipodi:cy="32.18182"
       d="M 57.09091 32.18182 A 27.09091 28.727272 0 1 1  2.90909,32.18182 A 27.09091 28.727272 0 1 1  57.09091 32.18182 z"
       sodipodi:type="arc"
       style="fill:#000000;fill-opacity:0"
       sodipodi:ry="28.727272"
       sodipodi:rx="27.09091"
       transform="matrix(1.1006711,0,0,1,-0.2928614,0)" />
    <path
       id="path2168"
       sodipodi:cx="32.363636"
       sodipodi:cy="32"
       transform="matrix(1.0559462,0.1233268,-0.1279185,1.0174053,2.1009549,-4.0028152)"
       d="M 60.90909 32 A 28.545454 29.272728 0 1 1  3.818182,32 A 28.545454 29.272728 0 1 1  60.90909 32 z"
       sodipodi:type="arc"
       style="fill:#100000;fill-opacity:1"
       sodipodi:ry="29.272728"
       sodipodi:rx="28.545454"
       inkscape:export-xdpi="88.883087"
       inkscape:export-ydpi="88.883087" />
    <path
       id="path2181"
       d="M 58.320201,22.884718 C 58.320201,34.755462 46.562658,44.38969 32.075678,44.38969 C 17.588704,44.38969 5.8311605,34.755462 5.8311605,22.884718 C 5.8311605,11.013973 19.425096,34.006107 32.075678,42.052187 C 60.076371,59.861302 59.352377,12.374231 58.320201,22.884718 z "
       style="fill:#800000"
       sodipodi:nodetypes="csssc" />
    <path
       id="path2183"
       d="M 22.023654,26.836315 C 22.023654,36.119874 27.737213,43.654364 34.777119,43.654364 C 41.817028,43.654364 47.530587,36.119874 47.530587,26.836315 C 47.530587,17.552751 40.924642,35.533842 34.777119,41.82631 C 21.170257,55.754008 21.522073,18.616543 22.023654,26.836315 z "
       style="fill:#d40000"
       sodipodi:nodetypes="csssc" />
    <text
       id="text2189"
       x="23.426861"
       y="42.408474"
       transform="scale(1.0476746,0.9544949)"
       xml:space="preserve"
       style="font-size:21.28145981px;font-style:normal;font-weight:normal;fill:#ffffff;fill-opacity:1;stroke:none;stroke-width:1px;stroke-linecap:butt;stroke-linejoin:miter;stroke-opacity:1;font-family:Bitstream Vera Sans"><tspan
         y="42.408474"
         id="tspan2191"
         x="23.426861"
         sodipodi:role="line">4</tspan></text>
  </g>
</svg>
